<svg xmlns="http://www.w3.org/2000/svg" width="695.578" height="48.241" viewBox="0 0 695.578 48.241"><path d="M21.384 47.952c-3.312 0-6.289-.528-8.928-1.584-2.641-1.055-4.885-2.556-6.732-4.5-1.849-1.944-3.265-4.32-4.248-7.128C.492 31.932 0 28.753 0 25.2c0-3.839.587-7.308 1.764-10.404C2.94 11.7 4.619 9.048 6.804 6.84c2.184-2.207 4.835-3.899 7.956-5.076C17.88.589 21.36 0 25.2 0c1.536 0 3.107.097 4.716.288 1.607.192 3.083.408 4.428.648 1.584.241 3.12.529 4.608.864l.432.936c-.288 1.2-.552 2.52-.792 3.96a59.721 59.721 0 0 0-.648 4.32 80.02 80.02 0 0 0-.432 5.328l-7.128.504c0-.383.024-.792.072-1.224 0-.384.011-.792.036-1.224.024-.432.036-.888.036-1.368 0-2.111-.625-3.647-1.872-4.608-1.249-.959-3.24-1.44-5.976-1.44-3.744 0-6.588 1.309-8.532 3.924-1.944 2.617-2.916 6.564-2.916 11.844 0 5.904 1.055 10.452 3.168 13.644 2.112 3.193 5.04 4.788 8.784 4.788 2.592 0 4.608-.78 6.048-2.34 1.44-1.559 2.448-4.091 3.024-7.596l7.128-.504c-.241 1.44-.457 2.929-.648 4.464a76.53 76.53 0 0 0-.504 4.356 80.829 80.829 0 0 0-.288 4.644l-.72.864a51.947 51.947 0 0 1-4.608 1.44c-1.44.385-3.108.72-5.004 1.008-1.896.289-3.972.432-6.228.432zm70.428-38.88l-.324 6.876c-.12 2.52-.216 5.065-.288 7.632a868.327 868.327 0 0 0-.18 7.488c-.049 2.424-.072 4.572-.072 6.444s.216 3.145.647 3.816c.433.672 1.225 1.008 2.376 1.008h.9c.312 0 .587-.023.828-.072l.864-.144.359.576-.647 4.608c-1.104 0-2.28-.024-3.528-.072a132.823 132.823 0 0 0-3.456-.108 176.26 176.26 0 0 0-3.528-.036c-.72 0-1.645.011-2.771.036-1.128.023-2.244.036-3.348.036-1.249.047-2.545.072-3.889.072l.576-4.752c1.008 0 1.848-.108 2.521-.324.671-.216 1.199-.576 1.584-1.08.383-.504.659-1.175.827-2.016.168-.839.253-1.908.253-3.204v-9.144h-2.952c-.817 0-1.656-.011-2.521-.036a88.163 88.163 0 0 0-2.304-.036c-.529 0-1.332.036-2.412.108s-2.196.156-3.348.252a98.381 98.381 0 0 1-4.32.36l-.144 10.152c0 1.969.18 3.276.54 3.924.359.648 1.091.972 2.195.972h.973c.312 0 .587-.023.827-.072.288-.047.552-.096.792-.144l.36.504-.647 4.608c-1.152 0-2.281-.024-3.385-.072-.961-.048-1.933-.084-2.916-.108a99.57 99.57 0 0 0-2.483-.036c-1.105 0-2.316.023-3.637.072-1.32.047-2.556.108-3.708.18-1.151.072-2.124.144-2.916.216s-1.188.132-1.188.18l.504-4.68c1.056-.191 1.919-.432 2.592-.72.672-.288 1.199-.659 1.584-1.116.384-.456.648-1.019.792-1.692.145-.671.216-1.512.216-2.52l.072-27.72c0-1.536-.169-2.544-.504-3.024-.336-.479-1.032-.72-2.088-.72-.241 0-.48.012-.72.036-.241.024-.48.036-.721.036h-.792l-.359-.576.576-4.248c1.055.048 2.111.072 3.168.072h5.399c.911 0 2.004-.011 3.276-.036a52.116 52.116 0 0 0 3.563-.18C66.176.552 67.52.457 68.912.36l-.359 4.824c-.913.144-1.646.312-2.196.504-.553.192-.973.468-1.26.828-.288.36-.493.84-.612 1.44-.12.601-.205 1.38-.252 2.34L63.8 20.592l9.217.144a79.04 79.04 0 0 0 4.464-.108 54.35 54.35 0 0 0 4.032-.396V9.289c0-1.487-.169-2.484-.505-2.988s-1.032-.756-2.088-.756c-.24 0-.48.012-.72.036-.24.024-.48.036-.72.036h-.792l-.36-.576.576-4.248c1.152.048 2.304.072 3.456.072h5.76c.815 0 1.824-.011 3.024-.036A51.314 51.314 0 0 0 92.6.649c1.296-.096 2.664-.191 4.104-.288l-.432 4.752c-.864.144-1.584.3-2.16.468-.576.168-1.021.396-1.332.684-.312.288-.54.661-.684 1.116-.14.456-.237 1.02-.284 1.691zm30.974 38.88c-3.216 0-6.096-.528-8.64-1.584-2.545-1.055-4.705-2.567-6.48-4.536-1.776-1.968-3.144-4.356-4.104-7.164-.961-2.808-1.44-5.964-1.44-9.468 0-3.791.564-7.236 1.692-10.332 1.127-3.096 2.724-5.748 4.788-7.956 2.063-2.208 4.547-3.912 7.452-5.112 2.903-1.199 6.131-1.8 9.684-1.8 3.264 0 6.192.516 8.784 1.548 2.592 1.033 4.788 2.52 6.588 4.464s3.168 4.309 4.104 7.092c.936 2.784 1.403 5.929 1.403 9.432 0 3.84-.564 7.32-1.691 10.44-1.129 3.121-2.736 5.785-4.824 7.992-2.088 2.208-4.597 3.924-7.524 5.148-2.928 1.225-6.191 1.836-9.792 1.836zm1.801-6.263c3.407 0 6.059-1.32 7.955-3.96 1.896-2.639 2.845-6.432 2.845-11.376 0-6.432-1.008-11.268-3.024-14.508s-4.896-4.86-8.64-4.86c-3.312 0-5.881 1.321-7.704 3.96-1.825 2.641-2.736 6.433-2.736 11.376 0 6.384.983 11.208 2.952 14.472 1.967 3.264 4.751 4.896 8.352 4.896zm50.968 6.263c-3.312 0-6.289-.528-8.929-1.584-2.64-1.055-4.885-2.556-6.731-4.5-1.849-1.944-3.265-4.32-4.248-7.128-.984-2.808-1.477-5.987-1.477-9.54 0-3.839.588-7.308 1.765-10.404 1.176-3.096 2.854-5.748 5.04-7.956 2.184-2.207 4.835-3.899 7.956-5.076C172.05.589 175.53 0 179.37 0c1.536 0 3.107.097 4.716.288 1.608.192 3.084.408 4.429.648 1.584.241 3.119.529 4.607.864l.433.936c-.288 1.2-.553 2.52-.792 3.96a59.721 59.721 0 0 0-.648 4.32 80.02 80.02 0 0 0-.432 5.328l-7.128.504c0-.383.023-.792.071-1.224 0-.384.012-.792.036-1.224.023-.432.036-.888.036-1.368 0-2.111-.624-3.647-1.872-4.608-1.249-.959-3.24-1.44-5.976-1.44-3.744 0-6.588 1.309-8.532 3.924-1.944 2.617-2.916 6.564-2.916 11.844 0 5.904 1.056 10.452 3.168 13.644 2.111 3.193 5.04 4.788 8.784 4.788 2.592 0 4.607-.78 6.048-2.34 1.44-1.559 2.448-4.091 3.024-7.596l7.128-.504c-.241 1.44-.457 2.929-.648 4.464a76.53 76.53 0 0 0-.504 4.356 79.935 79.935 0 0 0-.288 4.644l-.72.864a51.947 51.947 0 0 1-4.608 1.44c-1.439.385-3.108.72-5.004 1.008-1.896.289-3.973.432-6.227.432zm45.552 0c-3.216 0-6.096-.528-8.64-1.584-2.545-1.055-4.705-2.567-6.48-4.536-1.776-1.968-3.144-4.356-4.104-7.164-.961-2.808-1.44-5.964-1.44-9.468 0-3.791.564-7.236 1.692-10.332 1.127-3.096 2.724-5.748 4.788-7.956C208.986 4.704 211.47 3 214.375 1.8c2.903-1.199 6.131-1.8 9.684-1.8 3.264 0 6.192.516 8.784 1.548 2.592 1.033 4.788 2.52 6.588 4.464s3.168 4.309 4.104 7.092c.936 2.784 1.403 5.929 1.403 9.432 0 3.84-.564 7.32-1.691 10.44-1.129 3.121-2.736 5.785-4.824 7.992-2.088 2.208-4.597 3.924-7.524 5.148-2.927 1.225-6.191 1.836-9.792 1.836zm1.801-6.263c3.407 0 6.059-1.32 7.955-3.96 1.896-2.639 2.845-6.432 2.845-11.376 0-6.432-1.008-11.268-3.024-14.508s-4.896-4.86-8.64-4.86c-3.312 0-5.881 1.321-7.704 3.96-1.825 2.641-2.736 6.433-2.736 11.376 0 6.384.983 11.208 2.952 14.472 1.967 3.264 4.751 4.896 8.352 4.896zm41.017 5.4a94.7 94.7 0 0 0-4.644.108 114.35 114.35 0 0 0-3.925.252c-1.344.144-2.592.263-3.743.36l.504-4.896c1.823-.288 3.083-.864 3.779-1.728.695-.864 1.044-2.352 1.044-4.464V9.289c0-1.536-.168-2.544-.504-3.024-.336-.479-1.032-.72-2.088-.72a6.2 6.2 0 0 0-.684.036 6.205 6.205 0 0 1-.685.036h-.792l-.359-.576.504-4.248h1.872c.767 0 1.595.012 2.483.036.888.024 1.812.036 2.772.036h2.664c.815 0 1.847-.011 3.096-.036a59.87 59.87 0 0 0 3.672-.18 754.86 754.86 0 0 1 4.393-.288l-.576 5.112c-1.249.144-2.221.324-2.916.54-.696.216-1.224.517-1.584.9-.36.385-.601.889-.72 1.512-.121.625-.205 1.393-.252 2.304a210.119 210.119 0 0 0-.36 6.192c-.097 2.16-.18 4.368-.252 6.624-.072 2.257-.12 4.536-.145 6.84a642.754 642.754 0 0 0-.035 6.696c0 .912.06 1.645.18 2.196.119.552.335.984.647 1.296.312.313.757.529 1.332.648.576.121 1.344.18 2.305.18 1.68 0 3.06-.132 4.14-.396 1.08-.263 1.955-.792 2.628-1.584.672-.792 1.188-1.908 1.548-3.348.36-1.44.659-3.312.9-5.616l6.12-.648.504.72a64.501 64.501 0 0 0-.72 4.968 92.173 92.173 0 0 0-.648 5.22 602.99 602.99 0 0 0-.576 6.156l-.647.792-6.912-.288a234.545 234.545 0 0 0-6.553-.216 324.908 324.908 0 0 0-6.767-.072zm68.823-9.504c.527 1.681 1.188 2.892 1.979 3.636.792.745 2.004 1.188 3.637 1.332l.288.504-.505 4.248a71.26 71.26 0 0 1-3.239-.072c-.913-.048-1.872-.084-2.88-.108a110.877 110.877 0 0 0-2.736-.036c-1.537 0-3.049.023-4.536.072a71.6 71.6 0 0 0-3.888.216c-1.345.096-2.592.191-3.744.288l-.432-.576.359-4.32a38.58 38.58 0 0 0 2.844-.324c.744-.119 1.308-.275 1.692-.468.384-.191.648-.443.792-.756.144-.312.216-.684.216-1.116 0-.479-.12-1.271-.359-2.376l-1.44-5.472a70.193 70.193 0 0 0-3.384-.072h-3.168c-1.152 0-2.365.061-3.637.18-1.271.121-2.34.229-3.203.324l-1.801 5.4c-.288 1.008-.432 1.753-.432 2.232 0 .817.239 1.38.72 1.692.479.313 1.344.468 2.593.468h3.096l.288.504-.504 4.536a94.559 94.559 0 0 1-3.528-.216 486.077 486.077 0 0 0-3.42-.144 91.009 91.009 0 0 0-3.564-.072c-.96 0-1.969.011-3.023.036-1.057.023-1.992.06-2.809.108a62.052 62.052 0 0 1-2.88.072l.576-4.824c1.104-.191 2.016-.636 2.736-1.332.72-.695 1.368-1.836 1.943-3.42l12.816-36.504L321.659.073l.792.36c1.247 4.8 2.495 9.48 3.744 14.04l1.619 6.048a460.522 460.522 0 0 0 1.692 6.156c.576 2.041 1.14 3.996 1.692 5.868a209.723 209.723 0 0 0 1.55 5.04zm-23.616-11.088h5.04c.815 0 1.716-.024 2.7-.072a34.297 34.297 0 0 0 2.628-.216l-4.176-15.84h-1.009l-5.183 16.128zm48.079-19.945c-1.969.048-3.504.18-4.607.396-1.105.216-1.957.648-2.557 1.296-.601.648-1.021 1.573-1.26 2.772-.24 1.2-.48 2.833-.72 4.896l-6.048.432a238.7 238.7 0 0 1 .359-5.112c.096-1.487.181-3.143.252-4.968.072-1.823.132-3.624.181-5.4l.792-.792 7.271.792h22.393l7.416-.792.792.792a351.9 351.9 0 0 0 .18 5.4c.072 1.776.155 3.384.252 4.824.096 1.681.191 3.289.288 4.824l-6.048.432c-.288-2.207-.553-3.947-.792-5.22-.241-1.271-.648-2.232-1.225-2.88-.575-.648-1.38-1.08-2.412-1.296-1.032-.216-2.46-.348-4.283-.396a290.303 290.303 0 0 0-.288 6.012 541.514 541.514 0 0 0-.252 7.812c-.072 2.784-.133 5.652-.181 8.604s-.071 5.749-.071 8.388c0 1.825.299 3.096.899 3.816.6.72 1.62 1.08 3.061 1.08h1.476c.456 0 .875-.023 1.26-.072.384-.047.744-.096 1.08-.144l.288.36-.647 4.968c-1.681-.048-3.312-.097-4.896-.144a222.683 222.683 0 0 0-4.104-.108 200 200 0 0 0-3.528-.036c-1.008 0-2.208.023-3.6.072-1.394.047-2.713.096-3.961.144-1.488.096-3 .168-4.535.216l.575-4.752c1.584-.144 2.845-.335 3.78-.576.937-.24 1.656-.623 2.16-1.152.504-.528.839-1.248 1.008-2.16.168-.911.252-2.135.252-3.672V6.552zm49.56 30.529c0 .96.047 1.728.144 2.304.096.576.3 1.008.612 1.296.312.288.779.48 1.404.576.623.097 1.439.144 2.447.144 2.208 0 3.996-.083 5.364-.252 1.368-.167 2.448-.54 3.24-1.116s1.368-1.404 1.728-2.484.659-2.531.9-4.356l6.12-.504.504.72c-.241 1.296-.48 2.664-.72 4.104a76.988 76.988 0 0 0-.685 4.284 210.506 210.506 0 0 0-.611 5.004l-.648.792c-2.641-.048-5.28-.12-7.92-.216a308.333 308.333 0 0 0-7.308-.216 388.41 388.41 0 0 0-7.236-.072c-1.633 0-3.192.036-4.68.108-1.489.072-2.809.155-3.96.252-1.345.144-2.641.263-3.889.36l.576-4.896c2.016-.288 3.384-.864 4.104-1.728.72-.864 1.079-2.352 1.079-4.464l.072-27.288c0-1.536-.156-2.567-.468-3.096-.312-.528-.948-.792-1.908-.792a6.2 6.2 0 0 0-.684.036 6.205 6.205 0 0 1-.685.036c-.24.048-.504.072-.792.072l-.504-.648.576-4.392c1.487.048 3.024.097 4.608.144 1.343.048 2.783.072 4.319.072h4.393c10.176 0 17.471-.288 21.888-.864l.576.792a43.307 43.307 0 0 0-.72 4.032 93.342 93.342 0 0 0-.54 4.212 94.901 94.901 0 0 0-.396 4.86l-6.624.432a7.5 7.5 0 0 1 .072-1.08c0-.288.011-.6.036-.936.023-.335.036-.624.036-.864 0-1.008-.097-1.8-.288-2.376-.192-.576-.601-1.032-1.225-1.368-.624-.335-1.536-.551-2.735-.648-1.201-.095-2.809-.144-4.824-.144-.864 0-1.537.024-2.017.072-.479.048-.853.156-1.115.324a1.26 1.26 0 0 0-.54.72c-.097.313-.145.732-.145 1.26l-.504 11.16c.768 0 1.812.013 3.132.036 1.32.025 2.508.036 3.564.036.576 0 1.332-.024 2.268-.072.937-.047 1.86-.119 2.772-.216 1.055-.096 2.16-.191 3.312-.288l.581.647-1.008 6.192c-1.104 0-2.208-.023-3.312-.072-.96-.047-1.979-.083-3.06-.108-1.08-.024-2.077-.036-2.988-.036-1.104 0-2.136.048-3.096.144-.961.097-1.753.192-2.376.288-.097 2.64-.156 4.741-.18 6.3a243.715 243.715 0 0 0-.036 3.781zm42.354 10.008c-1.057 0-2.185.036-3.384.108-1.2.072-2.353.155-3.456.252-1.249.144-2.496.263-3.744.36l.576-4.896c2.063-.335 3.456-.9 4.176-1.692.721-.792 1.08-2.124 1.08-3.996l.072-28.08c0-1.343-.169-2.279-.504-2.808-.337-.528-.961-.792-1.872-.792-.241 0-.504.012-.792.036a9.615 9.615 0 0 1-.792.036 5.247 5.247 0 0 1-.864.072l-.432-.576.647-4.392c1.44.048 2.783.072 4.032.072 1.104.048 2.207.072 3.312.072h2.664a197.187 197.187 0 0 0 6.479-.144c1.44-.047 2.952-.119 4.536-.216 4.991 0 8.784.948 11.376 2.844 2.592 1.897 3.888 4.669 3.888 8.316 0 2.544-.709 4.716-2.124 6.516-1.416 1.8-3.275 3.301-5.58 4.5 2.88.769 5.292 2.016 7.236 3.744s2.916 4.057 2.916 6.984c0 2.16-.444 4.129-1.332 5.904-.889 1.776-2.148 3.301-3.78 4.572-1.632 1.272-3.612 2.245-5.939 2.916-2.329.672-4.908 1.008-7.74 1.008a24.43 24.43 0 0 1-2.412-.144c-.936-.097-1.896-.18-2.88-.252s-1.944-.144-2.88-.216a32.745 32.745 0 0 0-2.483-.108zm4.896-20.161l-.288 10.44c0 1.537.515 2.628 1.548 3.276 1.031.648 2.771.972 5.22.972 2.352 0 4.176-.623 5.473-1.872 1.296-1.248 1.943-3.024 1.943-5.328 0-3.936-2.424-6.456-7.271-7.56l-6.625.072zm.144-6.407c1.056.144 2.017.264 2.88.36.768.097 1.523.169 2.269.216.743.048 1.307.072 1.691.072a8.233 8.233 0 0 0 2.448-1.584c.623-.576 1.199-1.356 1.729-2.34.527-.983.792-2.219.792-3.708 0-2.448-.805-4.236-2.412-5.364-1.609-1.127-4.116-1.692-7.524-1.692-.48 0-.805.084-.972.252-.169.169-.277.516-.324 1.044a59.052 59.052 0 0 0-.216 3.24l-.145 3.456a1139.14 1139.14 0 0 1-.144 3.312 59.932 59.932 0 0 0-.072 2.736zm50.682 27.431c-3.216 0-6.096-.528-8.64-1.584-2.545-1.055-4.705-2.567-6.48-4.536-1.776-1.968-3.144-4.356-4.104-7.164-.961-2.808-1.44-5.964-1.44-9.468 0-3.791.564-7.236 1.692-10.332 1.127-3.096 2.724-5.748 4.788-7.956C492.726 4.704 495.21 3 498.115 1.8c2.903-1.199 6.131-1.8 9.684-1.8 3.264 0 6.192.516 8.784 1.548 2.592 1.033 4.788 2.52 6.588 4.464s3.168 4.309 4.104 7.092c.936 2.784 1.403 5.929 1.403 9.432 0 3.84-.564 7.32-1.691 10.44-1.129 3.121-2.736 5.785-4.824 7.992-2.088 2.208-4.597 3.924-7.524 5.148-2.928 1.225-6.192 1.836-9.792 1.836zm1.8-6.263c3.407 0 6.059-1.32 7.955-3.96 1.896-2.639 2.845-6.432 2.845-11.376 0-6.432-1.008-11.268-3.024-14.508s-4.896-4.86-8.64-4.86c-3.312 0-5.881 1.321-7.704 3.96-1.825 2.641-2.736 6.433-2.736 11.376 0 6.384.983 11.208 2.952 14.472 1.968 3.264 4.752 4.896 8.352 4.896zm64.9-4.104c.527 1.681 1.188 2.892 1.979 3.636.792.745 2.004 1.188 3.637 1.332l.288.504-.505 4.248a71.26 71.26 0 0 1-3.239-.072c-.913-.048-1.872-.084-2.88-.108a110.877 110.877 0 0 0-2.736-.036c-1.537 0-3.049.023-4.536.072a71.6 71.6 0 0 0-3.888.216c-1.345.096-2.592.191-3.744.288l-.432-.576.359-4.32a38.58 38.58 0 0 0 2.844-.324c.744-.119 1.308-.275 1.692-.468.384-.191.648-.443.792-.756.144-.312.216-.684.216-1.116 0-.479-.12-1.271-.359-2.376l-1.44-5.472a70.193 70.193 0 0 0-3.384-.072h-3.168c-1.152 0-2.365.061-3.637.18-1.271.121-2.34.229-3.203.324l-1.801 5.4c-.288 1.008-.432 1.753-.432 2.232 0 .817.239 1.38.72 1.692.479.313 1.344.468 2.593.468h3.096l.288.504-.504 4.536a94.559 94.559 0 0 1-3.528-.216 486.077 486.077 0 0 0-3.42-.144 91.009 91.009 0 0 0-3.564-.072c-.96 0-1.969.011-3.023.036-1.057.023-1.992.06-2.809.108a62.052 62.052 0 0 1-2.88.072l.576-4.824c1.104-.191 2.016-.636 2.736-1.332.72-.695 1.368-1.836 1.943-3.42L549.01 1.225 560.458.073l.792.36c1.247 4.8 2.495 9.48 3.744 14.04l1.619 6.048a460.522 460.522 0 0 0 1.692 6.156c.576 2.041 1.14 3.996 1.692 5.868a209.723 209.723 0 0 0 1.55 5.04zm-23.616-11.088h5.04c.815 0 1.716-.024 2.7-.072a34.297 34.297 0 0 0 2.628-.216l-4.176-15.84h-1.009l-5.183 16.128zm51.305 2.52l-.071 7.92c0 1.2.047 2.16.144 2.88.096.72.324 1.272.684 1.656.36.385.876.637 1.549.756.671.12 1.584.205 2.735.252l.288.432-.72 4.464a344.505 344.505 0 0 0-3.601-.108c-1.008-.025-2.063-.048-3.168-.072a128.432 128.432 0 0 0-2.88-.036c-1.104 0-2.257.011-3.456.036-1.2.024-2.304.06-3.312.108-1.2.047-2.376.12-3.528.216l.648-4.824c2.016-.288 3.371-.828 4.067-1.62.695-.792 1.044-2.219 1.044-4.284l.072-27.72c0-1.392-.156-2.328-.468-2.808-.312-.479-.925-.72-1.836-.72-.241 0-.517.012-.828.036-.312.024-.588.036-.828.036a5.247 5.247 0 0 1-.864.072l-.359-.576.576-4.392c1.151.048 2.304.072 3.456.072a59.81 59.81 0 0 0 2.987.072h2.628c.721 0 1.703-.011 2.952-.036 1.248-.024 2.472-.06 3.672-.108 1.392-.047 2.855-.119 4.393-.216 5.519 0 9.743 1.056 12.672 3.168 2.927 2.113 4.392 5.184 4.392 9.216 0 2.88-.828 5.484-2.483 7.812-1.656 2.329-4.045 4.309-7.164 5.94l6.264 10.08c1.344 2.16 2.628 3.744 3.852 4.752 1.225 1.008 2.604 1.512 4.141 1.512l.504.648-.504 3.816-8.568.792c-3.168 0-5.784-2.232-7.848-6.696l-6.192-12.528h-5.042zm6.696-5.76c.384-.144.911-.396 1.584-.756.672-.36 1.343-.888 2.016-1.584.672-.695 1.261-1.584 1.765-2.664s.756-2.412.756-3.996c0-5.184-3.576-7.776-10.729-7.776-.528 0-.863.097-1.008.288-.144.192-.24.624-.288 1.296-.192 2.88-.323 5.46-.396 7.74a687.04 687.04 0 0 0-.181 6.732l6.481.72zm48.564 24.695l-3.889-.432a296.027 296.027 0 0 0-3.563-.288 45.376 45.376 0 0 0-3.42-.144c-.961 0-1.969.036-3.024.108a93.054 93.054 0 0 0-3.024.252 85.945 85.945 0 0 1-3.239.36l.504-4.896c2.063-.384 3.443-.996 4.14-1.836.695-.839 1.044-2.268 1.044-4.284l.072-27.288c0-1.536-.156-2.567-.468-3.096-.313-.527-.925-.792-1.836-.792-.241 0-.493.013-.757.036a8.012 8.012 0 0 1-.756.036 5.244 5.244 0 0 1-.863.072l-.433-.648.576-4.464 3.528.144c.959.048 1.968.072 3.023.072h2.664c.815 0 1.872-.011 3.168-.036 1.296-.024 2.567-.06 3.816-.108a147.25 147.25 0 0 0 4.464-.216c3.647 0 6.912.493 9.792 1.476 2.88.984 5.315 2.401 7.308 4.248 1.991 1.848 3.516 4.116 4.572 6.804 1.056 2.689 1.584 5.713 1.584 9.072 0 3.792-.612 7.272-1.836 10.44s-2.94 5.893-5.147 8.172c-2.209 2.28-4.85 4.057-7.921 5.328-3.072 1.272-6.433 1.908-10.079 1.908zm-2.089-41.183c-.816 0-1.356.12-1.619.36-.265.241-.421.696-.469 1.368-.288 6.096-.516 11.496-.684 16.2-.169 4.705-.252 8.665-.252 11.88 0 1.008.083 1.849.252 2.52.168.673.479 1.201.936 1.584.456.385 1.068.648 1.836.792s1.752.216 2.952.216c4.224 0 7.416-1.44 9.576-4.32s3.24-7.224 3.24-13.032c0-6.144-1.285-10.608-3.853-13.392-2.567-2.784-6.539-4.176-11.915-4.176zm37.339 41.112c-1.824 0-3.18-.504-4.067-1.512-.889-1.008-1.332-2.328-1.332-3.96 0-1.728.515-3.143 1.548-4.248 1.031-1.104 2.459-1.656 4.284-1.656 1.728 0 3.06.493 3.996 1.476.936.984 1.403 2.292 1.403 3.924 0 1.776-.516 3.216-1.548 4.32-1.032 1.103-2.46 1.656-4.284 1.656z"/></svg>